# xmcd
#
# Track frame offsets:
#	150
#	13018
#	27344
#	39994
#	55441
#	70096
#	84117
#
# Disc length: 1339 seconds
# Revision: 0
# Processed by: cddbd v1.5.2PL0 Copyright (c) Steve Scherf et al.
# Submitted via: dBpowerAMP V12.0
#
DISCID=4d053907
DTITLE=Julie Gribble - Crimson Sky
DYEAR=2014
DGENRE=Country
TTITLE0=01 Over And Over Again
TTITLE1=02 Crimson Sky
TTITLE2=03 Like You
TTITLE3=04 I'm Leaving
TTITLE4=05 Love Me Enough
TTITLE5=06 Leave You Behind
TTITLE6=07 Stop Spinning
EXTD=
EXTT0=
EXTT1=
EXTT2=
EXTT3=
EXTT4=
EXTT5=
EXTT6=
PLAYORDER=
